<svg xmlns="http://www.w3.org/2000/svg" xmlns:xlink="http://www.w3.org/1999/xlink" width="1024" zoomAndPan="magnify" viewBox="0 0 768 767.999994" height="1024" preserveAspectRatio="xMidYMid meet" version="1.0"><defs><clipPath id="429a82f911"><path d="M 56.554688 8.167969 L 716 8.167969 L 716 758 L 56.554688 758 Z M 56.554688 8.167969 " clip-rule="nonzero"/></clipPath><clipPath id="fe98d4df57"><path d="M 76.035156 181.472656 L 366.4375 13.730469 C 378.492188 6.765625 393.347656 6.765625 405.402344 13.730469 L 695.804688 181.472656 C 707.859375 188.433594 715.289062 201.300781 715.289062 215.222656 L 715.289062 550.722656 C 715.289062 564.644531 707.859375 577.511719 695.804688 584.476562 L 405.402344 752.214844 C 393.347656 759.179688 378.492188 759.179688 366.4375 752.214844 L 76.035156 584.476562 C 63.980469 577.511719 56.554688 564.644531 56.554688 550.722656 L 56.554688 215.222656 C 56.554688 201.300781 63.980469 188.433594 76.035156 181.472656 Z M 76.035156 181.472656 " clip-rule="nonzero"/></clipPath><clipPath id="bca7275da8"><path d="M 0.554688 0.167969 L 659.441406 0.167969 L 659.441406 750 L 0.554688 750 Z M 0.554688 0.167969 " clip-rule="nonzero"/></clipPath><clipPath id="56cd31b6ac"><path d="M 20.035156 173.472656 L 310.4375 5.730469 C 322.492188 -1.234375 337.347656 -1.234375 349.402344 5.730469 L 639.804688 173.472656 C 651.859375 180.433594 659.289062 193.300781 659.289062 207.222656 L 659.289062 542.722656 C 659.289062 556.644531 651.859375 569.511719 639.804688 576.476562 L 349.402344 744.214844 C 337.347656 751.179688 322.492188 751.179688 310.4375 744.214844 L 20.035156 576.476562 C 7.980469 569.511719 0.554688 556.644531 0.554688 542.722656 L 0.554688 207.222656 C 0.554688 193.300781 7.980469 180.433594 20.035156 173.472656 Z M 20.035156 173.472656 " clip-rule="nonzero"/></clipPath><clipPath id="a8c7168de1"><rect x="0" width="660" y="0" height="750"/></clipPath><clipPath id="2f2bab275e"><path d="M 3 225 L 521 225 L 521 743 L 3 743 Z M 3 225 " clip-rule="nonzero"/></clipPath><clipPath id="1e3dbf8ce7"><path d="M 266.457031 229.148438 L 304.242188 415.273438 C 306.953125 428.636719 317.402344 439.085938 330.769531 441.796875 L 516.890625 479.582031 C 519.019531 480.015625 520.550781 481.886719 520.550781 484.058594 C 520.550781 486.230469 519.019531 488.101562 516.890625 488.535156 L 330.769531 526.320312 C 317.402344 529.035156 306.953125 539.480469 304.242188 552.847656 L 266.457031 738.96875 C 266.023438 741.097656 264.152344 742.628906 261.980469 742.628906 C 259.808594 742.628906 257.9375 741.097656 257.503906 738.96875 L 219.71875 552.847656 C 217.007812 539.480469 206.558594 529.035156 193.191406 526.320312 L 7.070312 488.535156 C 4.941406 488.101562 3.410156 486.230469 3.410156 484.058594 C 3.410156 481.886719 4.941406 480.015625 7.070312 479.582031 L 193.191406 441.796875 C 206.558594 439.085938 217.007812 428.636719 219.71875 415.273438 L 257.503906 229.148438 C 257.9375 227.019531 259.808594 225.492188 261.980469 225.492188 C 264.152344 225.492188 266.023438 227.019531 266.457031 229.148438 Z M 266.457031 229.148438 " clip-rule="nonzero"/></clipPath><clipPath id="7f5d2485bd"><path d="M 0.359375 0.320312 L 517.558594 0.320312 L 517.558594 517.761719 L 0.359375 517.761719 Z M 0.359375 0.320312 " clip-rule="nonzero"/></clipPath><clipPath id="e728f8b119"><path d="M 263.457031 4.148438 L 301.242188 190.273438 C 303.953125 203.636719 314.402344 214.085938 327.769531 216.796875 L 513.890625 254.582031 C 516.019531 255.015625 517.550781 256.886719 517.550781 259.058594 C 517.550781 261.230469 516.019531 263.101562 513.890625 263.535156 L 327.769531 301.320312 C 314.402344 304.035156 303.953125 314.480469 301.242188 327.847656 L 263.457031 513.96875 C 263.023438 516.097656 261.152344 517.628906 258.980469 517.628906 C 256.808594 517.628906 254.9375 516.097656 254.503906 513.96875 L 216.71875 327.847656 C 214.007812 314.480469 203.558594 304.035156 190.191406 301.320312 L 4.070312 263.535156 C 1.941406 263.101562 0.410156 261.230469 0.410156 259.058594 C 0.410156 256.886719 1.941406 255.015625 4.070312 254.582031 L 190.191406 216.796875 C 203.558594 214.085938 214.007812 203.636719 216.71875 190.273438 L 254.503906 4.148438 C 254.9375 2.019531 256.808594 0.492188 258.980469 0.492188 C 261.152344 0.492188 263.023438 2.019531 263.457031 4.148438 Z M 263.457031 4.148438 " clip-rule="nonzero"/></clipPath><clipPath id="3de262855e"><rect x="0" width="518" y="0" height="518"/></clipPath><clipPath id="8c7c44123f"><rect x="0" width="717" y="0" height="764"/></clipPath></defs><rect x="-76.8" width="921.6" fill="#ffffff" y="-76.799999" height="921.599993" fill-opacity="1"/><rect x="-76.8" width="921.6" fill="#fdfefe" y="-76.799999" height="921.599993" fill-opacity="1"/><g transform="matrix(1, 0, 0, 1, 0, 1)"><g clip-path="url(#8c7c44123f)"><g clip-path="url(#429a82f911)"><g clip-path="url(#fe98d4df57)"><g transform="matrix(1, 0, 0, 1, 56, 8)"><g clip-path="url(#a8c7168de1)"><g clip-path="url(#bca7275da8)"><g clip-path="url(#56cd31b6ac)"><path fill="#000000" d="M 0.554688 755.46875 L 0.554688 -4.988281 L 660.476562 -4.988281 L 660.476562 755.46875 Z M 0.554688 755.46875 " fill-opacity="1" fill-rule="nonzero"/></g></g></g></g></g></g><g clip-path="url(#2f2bab275e)"><g clip-path="url(#1e3dbf8ce7)"><g transform="matrix(1, 0, 0, 1, 3, 225)"><g clip-path="url(#3de262855e)"><g clip-path="url(#7f5d2485bd)"><g clip-path="url(#e728f8b119)"><rect x="-282.552" width="1327.104" fill="#ffffff" y="-505.551998" height="1327.10399" fill-opacity="1"/></g></g></g></g></g></g></g></g></svg>